<svg width="24" height="24" viewBox="0 0 24 24" fill="none" xmlns="http://www.w3.org/2000/svg">
<rect width="24" height="24" fill="currentColor" fill-opacity="0.01"/>
<path fill-rule="evenodd" clip-rule="evenodd" d="M14.155 4.05494C13.9043 3.96862 13.6295 3.98545 13.3911 4.10172C13.1528 4.21799 12.9704 4.42418 12.884 4.67494L8.05402 18.7209C7.97393 18.9701 7.99474 19.2408 8.11196 19.4748C8.22918 19.7088 8.43347 19.8875 8.68099 19.9726C8.92851 20.0577 9.19952 20.0423 9.43585 19.9298C9.67217 19.8174 9.85498 19.6167 9.94502 19.3709L14.775 5.32594C14.8613 5.07518 14.8445 4.8004 14.7282 4.56204C14.612 4.32368 14.4058 4.14128 14.155 4.05494ZM8.01702 12.2649L5.43702 9.76394L8.23602 7.04994C8.42644 6.86535 8.53574 6.61267 8.53987 6.34749C8.54399 6.08232 8.44261 5.82636 8.25802 5.63594C8.07343 5.44551 7.82075 5.33622 7.55557 5.33209C7.2904 5.32796 7.03444 5.42935 6.84402 5.61394L3.30402 9.04594C3.20785 9.13916 3.13139 9.25076 3.07918 9.37409C3.02697 9.49743 3.00006 9.63 3.00006 9.76394C3.00006 9.89787 3.02697 10.0304 3.07918 10.1538C3.13139 10.2771 3.20785 10.3887 3.30402 10.4819L6.62402 13.7009C6.71831 13.7924 6.82969 13.8644 6.9518 13.9128C7.07392 13.9612 7.20437 13.9851 7.33572 13.9831C7.46707 13.9811 7.59674 13.9533 7.71732 13.9012C7.83791 13.8491 7.94705 13.7737 8.03852 13.6794C8.12998 13.5851 8.20198 13.4738 8.2504 13.3517C8.29882 13.2295 8.32272 13.0991 8.32072 12.9677C8.31872 12.8364 8.29088 12.7067 8.23877 12.5861C8.18666 12.4655 8.11131 12.3564 8.01702 12.2649ZM20.236 13.8329L16.916 10.6129C16.8217 10.5215 16.7102 10.4495 16.588 10.4011C16.4659 10.3527 16.3354 10.3288 16.204 10.3309C15.9386 10.335 15.6857 10.4444 15.501 10.6349C15.3163 10.8255 15.2148 11.0816 15.219 11.347C15.2231 11.6124 15.3325 11.8652 15.523 12.0499L18.103 14.5499L15.304 17.2649C15.1136 17.4495 15.0043 17.7022 15.0002 17.9674C14.996 18.2326 15.0974 18.4885 15.282 18.6789C15.4666 18.8694 15.7193 18.9787 15.9845 18.9828C16.2496 18.9869 16.5056 18.8855 16.696 18.7009L20.236 15.2689C20.3322 15.1757 20.4086 15.0641 20.4609 14.9408C20.5131 14.8174 20.54 14.6849 20.54 14.5509C20.54 14.417 20.5131 14.2844 20.4609 14.1611C20.4086 14.0378 20.3322 13.9262 20.236 13.8329Z" fill="currentColor"/>
</svg>
