<svg width="24" height="24" viewBox="0 0 24 24" fill="none" xmlns="http://www.w3.org/2000/svg">
<rect width="24" height="24" fill="currentColor" fill-opacity="0.01"/>
<path fill-rule="evenodd" clip-rule="evenodd" d="M14.155 4.05494C13.9042 3.96862 13.6295 3.98545 13.3911 4.10172C13.1527 4.21799 12.9703 4.42418 12.884 4.67494L8.054 18.7209C7.97392 18.9701 7.99472 19.2408 8.11194 19.4748C8.22916 19.7088 8.43346 19.8875 8.68098 19.9726C8.92849 20.0577 9.1995 20.0423 9.43583 19.9298C9.67216 19.8174 9.85496 19.6167 9.945 19.3709L14.775 5.32594C14.8613 5.07518 14.8445 4.8004 14.7282 4.56204C14.6119 4.32368 14.4058 4.14128 14.155 4.05494ZM8.017 12.2649L5.437 9.76394L8.236 7.04994C8.42643 6.86535 8.53573 6.61267 8.53985 6.34749C8.54398 6.08232 8.44259 5.82636 8.258 5.63594C8.07341 5.44551 7.82074 5.33622 7.55556 5.33209C7.29038 5.32796 7.03443 5.42935 6.844 5.61394L3.304 9.04594C3.20784 9.13916 3.13138 9.25076 3.07916 9.37409C3.02695 9.49743 3.00005 9.63 3.00005 9.76394C3.00005 9.89787 3.02695 10.0304 3.07916 10.1538C3.13138 10.2771 3.20784 10.3887 3.304 10.4819L6.624 13.7009C6.71829 13.7924 6.82967 13.8644 6.95179 13.9128C7.0739 13.9612 7.20436 13.9851 7.33571 13.9831C7.46705 13.9811 7.59672 13.9533 7.71731 13.9012C7.83789 13.8491 7.94704 13.7737 8.0385 13.6794C8.12997 13.5851 8.20197 13.4738 8.25039 13.3517C8.29881 13.2295 8.3227 13.0991 8.32071 12.9677C8.31871 12.8364 8.29086 12.7067 8.23875 12.5861C8.18664 12.4655 8.11129 12.3564 8.017 12.2649ZM20.236 13.8329L16.916 10.6129C16.8216 10.5215 16.7102 10.4495 16.588 10.4011C16.4659 10.3527 16.3353 10.3288 16.2039 10.3309C15.9386 10.335 15.6857 10.4444 15.501 10.6349C15.3163 10.8255 15.2148 11.0816 15.2189 11.347C15.2231 11.6124 15.3324 11.8652 15.523 12.0499L18.103 14.5499L15.304 17.2649C15.1136 17.4495 15.0043 17.7022 15.0002 17.9674C14.996 18.2326 15.0974 18.4885 15.282 18.6789C15.4666 18.8694 15.7193 18.9787 15.9844 18.9828C16.2496 18.9869 16.5056 18.8855 16.696 18.7009L20.236 15.2689C20.3322 15.1757 20.4086 15.0641 20.4608 14.9408C20.5131 14.8174 20.54 14.6849 20.54 14.5509C20.54 14.417 20.5131 14.2844 20.4608 14.1611C20.4086 14.0378 20.3322 13.9262 20.236 13.8329Z" fill="#42526E"/>
</svg>
