<svg width="32" height="32" viewBox="0 0 32 32" fill="none" xmlns="http://www.w3.org/2000/svg">
<path d="M26.06 16.6401C26.06 22.7263 21.1262 27.6601 15.04 27.6601C8.95381 27.6601 4.01999 22.7263 4.01999 16.6401C4.01999 10.5539 8.95381 5.62012 15.04 5.62012C21.1262 5.62012 26.06 10.5539 26.06 16.6401Z" stroke="white"/>
<path d="M26.38 12.8001C26.38 17.4724 22.5923 21.2601 17.92 21.2601C13.2477 21.2601 9.45999 17.4724 9.45999 12.8001C9.45999 8.12776 13.2477 4.34009 17.92 4.34009C22.5923 4.34009 26.38 8.12776 26.38 12.8001Z" stroke="white"/>
<path d="M27.02 9.60006C27.02 13.212 24.0919 16.1401 20.48 16.1401C16.8681 16.1401 13.94 13.212 13.94 9.60006C13.94 5.98812 16.8681 3.06006 20.48 3.06006C24.0919 3.06006 27.02 5.98812 27.02 9.60006Z" stroke="white"/>
<path d="M10.8864 23.2289C10.058 23.3163 9.33091 23.902 8.70503 24.986C8.10637 26.0229 7.96269 26.9455 8.274 27.7537C8.59892 28.5383 9.18146 29.1731 10.0216 29.6582C10.8384 30.1297 11.6678 30.3101 12.5097 30.1992C13.3653 30.0647 14.0924 29.479 14.6911 28.4421C15.317 27.358 15.4606 26.4355 15.1221 25.6744C14.7972 24.8898 14.2263 24.2617 13.4095 23.7901C12.5694 23.3051 11.7283 23.118 10.8864 23.2289Z" fill="currentColor"/>
</svg>
